<svg width="18" height="22" viewBox="0 0 18 22" fill="none" xmlns="http://www.w3.org/2000/svg">
<path id="Vector" d="M0.5 7.89303C0.5 6.94111 0.666016 6.04427 0.998047 5.20252C1.33008 4.36078 1.78828 3.627 2.37266 3.0012C2.95703 2.3754 3.62995 1.83333 4.39141 1.375C5.15286 0.916667 5.97188 0.572917 6.84844 0.34375C7.725 0.114583 8.61927 0 9.53125 0C10.9302 0 12.2318 0.293069 13.4359 0.879207C14.6401 1.46534 15.6185 2.31811 16.3711 3.4375C17.1237 4.55689 17.5 5.82171 17.5 7.23197C17.5 8.07812 17.4159 8.90665 17.2477 9.71755C17.0794 10.5284 16.8138 11.3085 16.4508 12.0577C16.0878 12.8069 15.6451 13.4657 15.1227 14.0343C14.6003 14.6028 13.9583 15.0567 13.1969 15.396C12.4354 15.7354 11.5987 15.905 10.6867 15.905C10.0846 15.905 9.48698 15.764 8.89375 15.482C8.30052 15.1999 7.87552 14.8121 7.61875 14.3185C7.53021 14.6623 7.40625 15.1581 7.24688 15.8059C7.0875 16.4537 6.98346 16.8724 6.93477 17.0619C6.88607 17.2514 6.79531 17.5643 6.6625 18.0006C6.52969 18.4369 6.41458 18.7498 6.31719 18.9393C6.21979 19.1288 6.07812 19.4042 5.89219 19.7656C5.70625 20.127 5.5026 20.4685 5.28125 20.7903C5.0599 21.112 4.78542 21.4932 4.45781 21.9339L4.27188 22L4.15234 21.8678C4.01953 20.484 3.95312 19.6554 3.95312 19.3822C3.95312 18.5713 4.04831 17.6613 4.23867 16.652C4.42904 15.6428 4.72344 14.3758 5.12188 12.851C5.52031 11.3261 5.75052 10.4315 5.8125 10.1671C5.52917 9.59415 5.3875 8.84936 5.3875 7.93269C5.3875 7.20112 5.61771 6.51362 6.07812 5.87019C6.53854 5.22676 7.12292 4.90505 7.83125 4.90505C8.37135 4.90505 8.79193 5.08353 9.09297 5.44051C9.39401 5.79748 9.54453 6.2492 9.54453 6.79567C9.54453 7.3774 9.34974 8.21915 8.96016 9.32091C8.57057 10.4227 8.37578 11.2468 8.37578 11.7933C8.37578 12.3486 8.575 12.8091 8.97344 13.1749C9.37187 13.5407 9.85443 13.7236 10.4211 13.7236C10.9081 13.7236 11.3596 13.6134 11.7758 13.393C12.1919 13.1727 12.5395 12.873 12.8184 12.494C13.0973 12.115 13.3452 11.6963 13.5621 11.238C13.779 10.7796 13.9473 10.2927 14.0668 9.77704C14.1863 9.26142 14.2749 8.77224 14.3324 8.30949C14.39 7.84676 14.4188 7.40825 14.4188 6.99399C14.4188 5.46915 13.934 4.28145 12.9645 3.43089C11.9949 2.58033 10.731 2.15505 9.17266 2.15505C7.40182 2.15505 5.92318 2.72576 4.73672 3.86719C3.55026 5.00861 2.95703 6.45633 2.95703 8.21034C2.95703 8.59816 3.01237 8.97276 3.12305 9.33414C3.23372 9.69551 3.35326 9.98197 3.48164 10.1935C3.61003 10.405 3.72956 10.6056 3.84023 10.7951C3.95091 10.9846 4.00625 11.119 4.00625 11.1983C4.00625 11.4451 3.93984 11.7668 3.80703 12.1635C3.67422 12.5601 3.51042 12.7584 3.31563 12.7584C3.29792 12.7584 3.22266 12.7452 3.08984 12.7188C2.63828 12.5865 2.23763 12.3397 1.88789 11.9784C1.53815 11.617 1.2681 11.2005 1.07773 10.729C0.88737 10.2574 0.74349 9.78145 0.646094 9.30108C0.548698 8.82071 0.5 8.35136 0.5 7.89303Z" fill="#FFFEFE"/>
</svg>
