<svg width="44" height="43" viewBox="0 0 44 43" fill="none" xmlns="http://www.w3.org/2000/svg">
<path d="M1.44 14.024C1.44 11.256 1.904 9.096 2.832 7.544C3.776 5.976 5.392 5.192 7.68 5.192C9.968 5.192 11.576 5.976 12.504 7.544C13.448 9.096 13.92 11.256 13.92 14.024C13.92 16.824 13.448 19.016 12.504 20.6C11.576 22.168 9.968 22.952 7.68 22.952C5.392 22.952 3.776 22.168 2.832 20.6C1.904 19.016 1.44 16.824 1.44 14.024ZM11.232 14.024C11.232 12.728 11.144 11.632 10.968 10.736C10.808 9.84 10.472 9.112 9.96 8.552C9.448 7.976 8.688 7.688 7.68 7.688C6.672 7.688 5.912 7.976 5.4 8.552C4.888 9.112 4.544 9.84 4.368 10.736C4.208 11.632 4.128 12.728 4.128 14.024C4.128 15.368 4.208 16.496 4.368 17.408C4.528 18.32 4.864 19.056 5.376 19.616C5.904 20.176 6.672 20.456 7.68 20.456C8.688 20.456 9.448 20.176 9.96 19.616C10.488 19.056 10.832 18.32 10.992 17.408C11.152 16.496 11.232 15.368 11.232 14.024ZM18.807 19.28C20.343 17.952 21.551 16.864 22.431 16.016C23.327 15.152 24.071 14.256 24.663 13.328C25.255 12.4 25.551 11.472 25.551 10.544C25.551 9.584 25.319 8.832 24.855 8.288C24.407 7.744 23.695 7.472 22.719 7.472C21.775 7.472 21.039 7.776 20.511 8.384C19.999 8.976 19.727 9.776 19.695 10.784H17.055C17.103 8.96 17.647 7.568 18.687 6.608C19.743 5.632 21.079 5.144 22.695 5.144C24.439 5.144 25.799 5.624 26.775 6.584C27.767 7.544 28.263 8.824 28.263 10.424C28.263 11.576 27.967 12.688 27.375 13.76C26.799 14.816 26.103 15.768 25.287 16.616C24.487 17.448 23.463 18.416 22.215 19.52L21.135 20.48H28.743V22.76H17.079V20.768L18.807 19.28Z" fill="#242424"/>
<line x1="20.2929" y1="42.2929" x2="42.9203" y2="19.6655" stroke="#242424" stroke-width="2"/>
</svg>
