<svg width="44" height="43" viewBox="0 0 44 43" fill="none" xmlns="http://www.w3.org/2000/svg">
<path d="M1.44 14.024C1.44 11.256 1.904 9.096 2.832 7.544C3.776 5.976 5.392 5.192 7.68 5.192C9.968 5.192 11.576 5.976 12.504 7.544C13.448 9.096 13.92 11.256 13.92 14.024C13.92 16.824 13.448 19.016 12.504 20.6C11.576 22.168 9.968 22.952 7.68 22.952C5.392 22.952 3.776 22.168 2.832 20.6C1.904 19.016 1.44 16.824 1.44 14.024ZM11.232 14.024C11.232 12.728 11.144 11.632 10.968 10.736C10.808 9.84 10.472 9.112 9.96 8.552C9.448 7.976 8.688 7.688 7.68 7.688C6.672 7.688 5.912 7.976 5.4 8.552C4.888 9.112 4.544 9.84 4.368 10.736C4.208 11.632 4.128 12.728 4.128 14.024C4.128 15.368 4.208 16.496 4.368 17.408C4.528 18.32 4.864 19.056 5.376 19.616C5.904 20.176 6.672 20.456 7.68 20.456C8.688 20.456 9.448 20.176 9.96 19.616C10.488 19.056 10.832 18.32 10.992 17.408C11.152 16.496 11.232 15.368 11.232 14.024ZM17.247 9.824C17.343 8.336 17.911 7.176 18.951 6.344C20.007 5.512 21.351 5.096 22.983 5.096C24.103 5.096 25.071 5.296 25.887 5.696C26.703 6.096 27.319 6.64 27.735 7.328C28.151 8.016 28.359 8.792 28.359 9.656C28.359 10.648 28.095 11.496 27.567 12.2C27.039 12.904 26.407 13.376 25.671 13.616V13.712C26.615 14 27.351 14.528 27.879 15.296C28.407 16.048 28.671 17.016 28.671 18.2C28.671 19.144 28.455 19.984 28.023 20.72C27.591 21.456 26.951 22.04 26.103 22.472C25.255 22.888 24.239 23.096 23.055 23.096C21.327 23.096 19.903 22.656 18.783 21.776C17.679 20.88 17.087 19.6 17.007 17.936H19.647C19.711 18.784 20.039 19.48 20.631 20.024C21.223 20.552 22.023 20.816 23.031 20.816C24.007 20.816 24.759 20.552 25.287 20.024C25.815 19.48 26.079 18.784 26.079 17.936C26.079 16.816 25.719 16.024 24.999 15.56C24.295 15.08 23.207 14.84 21.735 14.84H21.111V12.584H21.759C23.055 12.568 24.039 12.352 24.711 11.936C25.399 11.52 25.743 10.864 25.743 9.968C25.743 9.2 25.495 8.592 24.999 8.144C24.503 7.68 23.799 7.448 22.887 7.448C21.991 7.448 21.295 7.68 20.799 8.144C20.303 8.592 20.007 9.152 19.911 9.824H17.247Z" fill="#242424"/>
<line x1="20.2929" y1="42.2929" x2="42.9203" y2="19.6655" stroke="#242424" stroke-width="2"/>
</svg>
